<?xml version="1.0" encoding="UTF-8" standalone="no"?>
<!-- Created with Inkscape (http://www.inkscape.org/) -->

<svg
   width="200mm"
   height="50mm"
   viewBox="0 0 200 50"
   version="1.1"
   id="svg1"
   inkscape:version="1.3 (0e150ed6c4, 2023-07-21)"
   xmlns:inkscape="http://www.inkscape.org/namespaces/inkscape"
   xmlns:sodipodi="http://sodipodi.sourceforge.net/DTD/sodipodi-0.dtd"
   xmlns="http://www.w3.org/2000/svg"
   xmlns:svg="http://www.w3.org/2000/svg">
  <sodipodi:namedview
     id="namedview1"
     pagecolor="#242424"
     bordercolor="#999999"
     borderopacity="1"
     inkscape:showpageshadow="2"
     inkscape:pageopacity="0"
     inkscape:pagecheckerboard="0"
     inkscape:deskcolor="#232323"
     inkscape:document-units="mm" />
  <defs
     id="defs1" />
  <g
     inkscape:label="Layer 1"
     inkscape:groupmode="layer"
     id="layer1">
    <g
       id="g2"
       transform="matrix(0.86583956,0,0,0.86583956,12.781836,-2.1322673)">
      <path
         id="path1"
         style="fill:#00ff00;fill-opacity:1;stroke:none;stroke-width:1;stroke-linecap:round;stroke-linejoin:round;stroke-dasharray:none;stroke-opacity:1"
         d="m 200.25703,26.219071 c -3.54432,0.278102 -7.72712,0.708801 -12.18944,1.194243 0.0447,0.62471 0.17399,0.900098 0.28215,1.00459 0.0345,0.03048 0.13898,0.06636 0.19792,0.101285 4.42005,-0.86497 8.49372,-1.676701 11.70937,-2.300118 z M 74.752026,27.232963 v 3.254065 c 2.766884,0.205822 5.493707,0.481162 8.198466,0.856278 L 81.518538,27.758512 C 79.259056,27.536145 77.00352,27.360203 74.752026,27.232963 Z m -21.449853,0.08837 c -5.004412,0.324842 -9.854249,0.86423 -14.528829,1.546159 v 3.095935 c 5.184064,-0.664493 10.038269,-1.163681 14.58774,-1.467611 -0.109825,-0.589909 -0.179317,-1.189639 -0.179317,-1.800407 0,-0.463607 0.04915,-0.921373 0.120406,-1.374076 z m 11.022066,0.21394 c -0.689513,0 -1.207531,0.0728 -1.529106,0.161747 -0.359615,0.09947 -0.539207,0.211742 -0.60203,0.262 -0.0864,0.06912 -0.09946,0.09855 -0.126607,0.15813 -0.03024,0.07433 -0.07028,0.201114 -0.07028,0.458887 0,0.09221 0.01677,0.158472 0.03514,0.228409 0.0045,0.0032 -0.02112,-0.0061 0.06821,0.02739 0.0437,0.01639 0.257486,0.07235 0.63872,0.07235 0.270395,0 0.833233,-0.106798 1.611272,-0.468705 0.347968,-0.165367 0.839487,-0.605781 1.259871,-0.900204 z m 115.167651,0.831991 c -2.48222,0.280393 -5.07034,0.557075 -7.68377,0.846976 a 2.5835654,2.5835654 0 0 1 0.45165,1.420586 v 0.865063 c 2.529,-0.433668 5.14124,-0.860963 7.50652,-1.297078 -0.13767,-0.593536 -0.22922,-1.203483 -0.2744,-1.835547 z m -84.27858,1.37821 -1.172539,3.078882 a 2.5835654,2.5835654 0 0 1 -0.0036,0.01137 c -0.06594,0.17045 -0.137021,0.313857 -0.203605,0.480591 1.022278,0.223735 2.041382,0.44007 3.074748,0.686779 3.537026,0.844441 7.321116,1.442923 11.264946,1.853634 -1.34345,-0.581933 -2.55206,-1.393313 -3.51503,-2.452563 a 2.5835654,2.5835654 0 0 1 -0.0274,-0.03101 c -0.54215,-0.615664 -1.00327,-1.299994 -1.39164,-2.033468 -1.20595,-0.203309 -2.38518,-0.422567 -3.503152,-0.677995 -1.499893,-0.342686 -3.012404,-0.624407 -4.522721,-0.916223 z m -65.096285,0.591695 c -1.081496,0.214046 -2.126435,0.44544 -3.177584,0.675411 v 1.78232 a 2.5835654,2.5835654 0 0 1 -0.272852,0.932243 c 1.167251,-0.18888 2.318311,-0.369294 3.450436,-0.543119 z M 152.00468,31.22032 c -1.03319,0.09097 -2.05253,0.184138 -3.08664,0.269234 v 2.514575 a 2.5835654,2.5835654 0 0 1 -0.18397,0.90072 c 1.88079,-0.210906 3.74953,-0.429381 5.60741,-0.668693 -0.30395,-0.259204 -0.59193,-0.536093 -0.86093,-0.83199 a 2.5835654,2.5835654 0 0 1 -0.0274,-0.03101 c -0.5708,-0.648201 -1.04812,-1.374872 -1.44849,-2.15284 z m -13.93921,1.027327 c -1.16398,0.0657 -2.31671,0.122236 -3.46955,0.175183 v 1.581299 a 2.5835654,2.5835654 0 0 1 -1.25005,2.20555 c 2.20793,-0.121532 4.41673,-0.268357 6.63318,-0.450102 a 2.5835654,2.5835654 0 0 1 -0.58084,-0.661975 z m -11.92692,0.427364 c -0.90124,0.0127 -1.81611,0.03676 -2.70319,0.03824 v 0.755509 a 2.5835654,2.5835654 0 0 1 -1.88257,2.486153 c -0.76118,0.214415 -1.58865,0.380965 -2.44843,0.5271 3.03116,0.06136 6.10893,0.04303 9.22838,-0.05581 a 2.5835654,2.5835654 0 0 1 -2.19419,-2.422074 z M 10.646379,35.59266 c -1.7638846,0.629897 -3.4651238,1.272342 -5.0296676,1.936832 2.4111712,-0.47346 4.5075796,-0.833683 6.7876996,-1.260905 -0.339608,-0.102799 -0.679176,-0.20504 -1.007691,-0.332796 a 2.5835654,2.5835654 0 0 1 -0.0083,-0.0041 c -0.254606,-0.09994 -0.495846,-0.223821 -0.742073,-0.338997 z" />
      <text
         xml:space="preserve"
         style="font-size:40.5694px;font-family:'Palatino Linotype';-inkscape-font-specification:'Palatino Linotype';text-align:center;letter-spacing:2.10608px;text-anchor:middle;fill:#ffffff;stroke-width:7;stroke-linecap:round;stroke-linejoin:round"
         x="92.006325"
         y="34.003315"
         id="text1"><tspan
           sodipodi:role="line"
           id="tspan1"
           style="font-style:normal;font-variant:normal;font-weight:normal;font-stretch:normal;font-size:40.5694px;font-family:Consolas;-inkscape-font-specification:Consolas;letter-spacing:2.10608px;stroke-width:7"
           x="93.059364"
           y="34.003315"
           dx="17.790001">GrayeNet</tspan></text>
    </g>
    <text
       xml:space="preserve"
       style="font-style:normal;font-variant:normal;font-weight:normal;font-stretch:normal;font-size:10.5833px;font-family:Consolas;-inkscape-font-specification:Consolas;text-align:center;letter-spacing:0px;text-anchor:middle;fill:#00ff00;fill-opacity:1;stroke:none;stroke-width:1;stroke-linecap:round;stroke-linejoin:round;stroke-dasharray:none;stroke-opacity:1"
       x="102.54169"
       y="42.637077"
       id="text2"><tspan
         sodipodi:role="line"
         id="tspan2"
         style="font-size:10.5833px;letter-spacing:0px;fill:#ffffff;fill-opacity:1;stroke:none;stroke-width:1;stroke-opacity:1"
         x="102.54169"
         y="42.637077">not wicked. just wicked cool.</tspan></text>
  </g>
</svg>
