<?xml version="1.0" encoding="UTF-8" standalone="no"?>
<!-- Created with Inkscape (http://www.inkscape.org/) -->

<svg
   width="717.03381"
   height="241.20605"
   id="svg3003"
   version="1.1"
   inkscape:version="0.92.1 r15371"
   sodipodi:docname="SocialMediaIcons.svg"
   inkscape:export-filename="/home/nick/Desktop/smip.png"
   inkscape:export-xdpi="90"
   inkscape:export-ydpi="90"
   xmlns:inkscape="http://www.inkscape.org/namespaces/inkscape"
   xmlns:sodipodi="http://sodipodi.sourceforge.net/DTD/sodipodi-0.dtd"
   xmlns="http://www.w3.org/2000/svg"
   xmlns:svg="http://www.w3.org/2000/svg"
   xmlns:rdf="http://www.w3.org/1999/02/22-rdf-syntax-ns#"
   xmlns:cc="http://creativecommons.org/ns#"
   xmlns:dc="http://purl.org/dc/elements/1.1/">
  <defs
     id="defs3005" />
  <sodipodi:namedview
     id="base"
     pagecolor="#ffffff"
     bordercolor="#666666"
     borderopacity="1.0"
     inkscape:pageopacity="0.0"
     inkscape:pageshadow="2"
     inkscape:zoom="1"
     inkscape:cx="429.34514"
     inkscape:cy="140.79241"
     inkscape:document-units="px"
     inkscape:current-layer="layer1"
     showgrid="false"
     showborder="true"
     inkscape:showpageshadow="false"
     inkscape:window-width="3840"
     inkscape:window-height="2050"
     inkscape:window-x="3348"
     inkscape:window-y="-12"
     inkscape:window-maximized="1"
     inkscape:object-nodes="false"
     borderlayer="true"
     fit-margin-top="0"
     fit-margin-left="0"
     fit-margin-right="0"
     fit-margin-bottom="0"
     inkscape:pagecheckerboard="0"
     inkscape:deskcolor="#d1d1d1" />
  <metadata
     id="metadata3008">
    <rdf:RDF>
      <cc:Work
         rdf:about="">
        <dc:format>image/svg+xml</dc:format>
        <dc:type
           rdf:resource="http://purl.org/dc/dcmitype/StillImage" />
        <dc:title />
      </cc:Work>
    </rdf:RDF>
  </metadata>
  <g
     inkscape:label="Layer 1"
     inkscape:groupmode="layer"
     id="layer1"
     transform="translate(-447.04266,-105.59053)">
    <rect
       style="fill:#222d35;fill-opacity:1;stroke-width:3.77953;stroke-linecap:round;stroke-linejoin:round"
       id="rect1"
       width="717.03381"
       height="241.20605"
       x="447.04266"
       y="105.59053" />
    <path
       id="path4157"
       d="m 970.05882,147.63389 c -6.43555,0 -11.66034,5.07506 -11.66034,11.35107 v 135.94741 c 0,6.27814 5.22479,11.35106 11.66034,11.35106 h 134.35738 c 6.4352,0 11.6603,-5.07292 11.6603,-11.35106 V 158.98496 c 0,-6.27601 -5.2251,-11.35107 -11.6603,-11.35107 z m 24.38045,26.63301 c 8.14743,0 13.13963,5.33602 13.29423,12.36687 0,6.87603 -5.1659,12.3669 -13.47096,12.3669 h -0.13228 c -7.99226,0 -13.16187,-5.49087 -13.16187,-12.3669 0,-7.03085 5.3244,-12.36687 13.47111,-12.36687 z m 70.22603,32.86055 c 15.669,0 27.384,10.23383 27.384,32.24227 v 41.07575 h -23.8061 v -38.33738 c 0,-9.63238 -3.4401,-16.20943 -12.058,-16.20943 -6.5789,0 -10.5126,4.46642 -12.2343,8.74513 -0.6289,1.53087 -0.7506,3.64446 -0.7506,5.78594 v 40.01574 h -23.8506 c 0,0 0.3126,-64.91624 0,-71.63963 h 23.8506 v 10.11431 c 3.1656,-4.88205 8.8371,-11.7927 21.465,-11.7927 z m -21.4654,11.7927 c -0.055,0.0851 -0.121,0.1813 -0.1769,0.26512 h 0.1769 z m -60.8184,-10.11431 h 23.8062 v 71.63963 h -23.8062 z"
       style="fill:#e0e0e0;fill-opacity:1;fill-rule:nonzero;stroke:none;stroke-width:3.10444"
       inkscape:connector-curvature="0" />
    <path
       style="fill:#e0e0e0;fill-opacity:1;stroke-width:3.10444"
       d="m 616.12544,136.18777 c -4.80709,0 -8.69934,3.89227 -8.69934,8.69934 V 285.1663 c 0,4.80584 3.89163,8.69934 8.69934,8.69934 h 75.52171 v -61.04829 h -20.55338 v -23.80367 h 20.55338 v -17.55166 c 0,-20.36569 12.44214,-31.45145 30.6102,-31.45145 8.70253,0 16.17533,0.64687 18.35462,0.93686 v 21.27992 h -12.59969 c -9.87971,0 -11.79669,4.69665 -11.79669,11.58638 v 15.19995 h 23.57427 l -3.07825,23.80367 h -20.49602 v 61.04829 h 40.18904 c 4.80524,0 8.69934,-3.89288 8.69934,-8.69934 V 144.88711 c 0,-4.80707 -3.8935,-8.69934 -8.69934,-8.69934 z"
       id="Blue_1_"
       inkscape:connector-curvature="0" />
    <path
       style="fill:#e0e0e0;fill-opacity:1;stroke-width:3.10444"
       inkscape:connector-curvature="0"
       id="path22"
       d="m 942.06177,175.21742 c -5.79848,2.57328 -12.0341,4.31247 -18.57653,5.096 6.67737,-4.00517 11.8045,-10.34416 14.21991,-17.89597 -6.24947,3.70838 -13.17024,6.39826 -20.54206,7.84816 -5.89764,-6.28522 -14.30524,-10.21393 -23.60908,-10.21393 -17.86602,0 -32.34661,14.48176 -32.34661,32.3466 0,2.53625 0.28344,5.0058 0.83718,7.37178 -26.88497,-1.34722 -50.72015,-14.22912 -66.67485,-33.79765 -2.78459,4.77535 -4.3796,10.33123 -4.3796,16.2604 0,11.22412 5.70839,21.1234 14.39062,26.92644 -5.30239,-0.16579 -10.29099,-1.62152 -14.65245,-4.04609 -0.006,0.13629 -0.006,0.27071 -0.006,0.40601 0,15.67558 11.15166,28.74663 25.94831,31.72028 -2.71201,0.73938 -5.56902,1.13039 -8.51949,1.13039 -2.0865,0 -4.10957,-0.19744 -6.08809,-0.57675 4.11913,12.85076 16.06317,22.20421 30.22078,22.46603 -11.07996,8.67752 -25.02559,13.8462 -40.18211,13.8462 -2.60922,0 -5.18607,-0.15366 -7.71874,-0.45102 14.32143,9.1779 31.32233,14.53136 49.59205,14.53136 59.49799,0 92.03032,-49.28872 92.03032,-92.03839 0,-1.40181 -0.0323,-2.79406 -0.091,-4.18131 6.31759,-4.56437 11.80105,-10.26006 16.14048,-16.74829" />
  </g>
</svg>
