<?xml version="1.0" encoding="UTF-8" standalone="no"?>
<!-- Created with Inkscape (http://www.inkscape.org/) -->

<svg
   width="300"
   height="300"
   viewBox="0 0 79.375 79.374999"
   version="1.1"
   id="svg1"
   inkscape:version="1.3 (0e150ed6c4, 2023-07-21)"
   xmlns:inkscape="http://www.inkscape.org/namespaces/inkscape"
   xmlns:sodipodi="http://sodipodi.sourceforge.net/DTD/sodipodi-0.dtd"
   xmlns="http://www.w3.org/2000/svg"
   xmlns:svg="http://www.w3.org/2000/svg">
  <sodipodi:namedview
     id="namedview1"
     pagecolor="#242424"
     bordercolor="#999999"
     borderopacity="1"
     inkscape:showpageshadow="2"
     inkscape:pageopacity="0"
     inkscape:pagecheckerboard="0"
     inkscape:deskcolor="#232323"
     inkscape:document-units="px" />
  <defs
     id="defs1" />
  <g
     inkscape:label="Layer 1"
     inkscape:groupmode="layer"
     id="layer1">
    <path
       id="path1"
       style="color:#000000;fill:#ffffff;fill-opacity:0.399068;stroke-linecap:round;stroke-linejoin:round;-inkscape-stroke:none"
       d="m 56.374853,3.183785 c -9.451177,-10e-8 -17.187581,7.735887 -17.187581,17.187064 0,3.448584 1.033877,6.66712 2.801379,9.366871 L 9.834025,61.892346 a 3.5,3.5 0 0 0 -0.5746419,0.791166 3.5,3.5 0 0 0 -0.1173055,0.243396 3.5,3.5 0 0 0 -0.2428793,0.745174 3.5,3.5 0 0 0 -0.048059,0.211357 3.5,3.5 0 0 0 0,0.96945 3.5,3.5 0 0 0 0.048059,0.211356 3.5,3.5 0 0 0 0.2428793,0.745174 3.5,3.5 0 0 0 0.1173055,0.243396 3.5,3.5 0 0 0 0.5746419,0.791167 l 4.014225,4.014225 a 3.5,3.5 0 0 0 0.0072,0.0088 3.5,3.5 0 0 0 0.0088,0.0072 l 5.147489,5.14749 a 3.5,3.5 0 0 0 4.949052,0 3.5,3.5 0 0 0 0,-4.949569 l -2.679423,-2.67994 3.153813,-3.153295 3.193603,3.194637 a 3.5,3.5 0 0 0 4.951119,0 3.5,3.5 0 0 0 0,-4.951119 L 25.361759,56.265299 46.922717,34.703825 c 2.007611,1.331804 4.306685,2.254599 6.776847,2.645316 1.198881,2.226945 3.108546,4.056651 5.50354,5.133537 1.509281,0.678633 3.145908,1.028878 4.800741,1.028878 6.423296,1e-6 11.705228,-5.281417 11.705228,-11.704712 0,-2.783711 -0.993144,-5.352171 -2.640148,-7.370093 0.31986,-1.305102 0.493509,-2.666069 0.493509,-4.065902 0,-9.451177 -7.736403,-17.187064 -17.187581,-17.187064 z m 0,6.999573 c 5.668104,0 10.187492,4.519387 10.187492,10.187491 0,0.0064 -5.05e-4,0.01271 -5.17e-4,0.01912 -0.824681,-0.186755 -1.680085,-0.288355 -2.557983,-0.288355 -3.647333,0 -7.093909,1.70577 -9.306409,4.605404 -1.145456,1.501199 -1.902965,3.24951 -2.223637,5.090645 C 51.27693,29.3074 50.201423,28.593411 49.288464,27.712002 a 3.5,3.5 0 0 0 -0.151929,-0.171049 3.5,3.5 0 0 0 -0.08837,-0.0677 c -1.772082,-1.829436 -2.860808,-4.326423 -2.860808,-7.102409 0,-5.668104 4.519388,-10.187491 10.187492,-10.187491 z m 7.628992,16.918347 c 0.01136,0 0.02225,0.0015 0.03359,0.0016 -1.165368,1.328377 -2.667841,2.350694 -4.387845,2.92592 0.15548,-0.381344 0.358976,-0.743819 0.612365,-1.075904 0.8919,-1.168897 2.271583,-1.851566 3.741891,-1.851566 z m 4.675167,5.234306 c -0.255208,2.381447 -2.214404,4.175455 -4.675167,4.175455 -0.432967,0 -0.860824,-0.06499 -1.275375,-0.181384 2.256393,-0.905972 4.279905,-2.276409 5.950542,-3.994071 z" />
  </g>
</svg>
